<svg width="96" height="96" viewBox="0 0 96 96" fill="none" xmlns="http://www.w3.org/2000/svg">
<circle cx="48" cy="48" r="48" fill="#0D302C"/>
<path d="M29.4227 45.8187H34.035L36.9537 54.1769L39.9084 45.8187H44.4847L40.0886 57.3068L43.3316 65.345L50.5744 45.7476H55.9794L45.7459 71.0001H41.4579L36.9537 60.4012L32.4855 71.0001H28.1975L18 45.7476H23.333L30.6118 65.345L33.7827 57.3068L29.4227 45.8187Z" fill="white"/>
<path d="M51.4432 25.0711H56.0555L58.9742 33.4294L61.929 25.0711H66.5052L62.1091 36.5593L65.3521 44.5974L72.5949 25H78L67.7664 50.2526H63.4784L58.9742 39.6536L54.506 50.2526H50.218L40.0205 25H45.3535L52.6323 44.5974L55.8032 36.5593L51.4432 25.0711Z" fill="white"/>
</svg>
