<svg width="60" height="47" viewBox="0 0 60 47" fill="none" xmlns="http://www.w3.org/2000/svg">
    <path d="M11.412 21.5119H16.02L18.936 29.9719L21.888 21.5119H26.46L22.068 33.1399L25.308 41.2759L32.544 21.4399H37.944L27.72 46.9999H23.436L18.936 36.2719L14.472 46.9999H10.188L0 21.4399H5.328L12.6 41.2759L15.768 33.1399L11.412 21.5119Z" fill="white"/>
    <path d="M33.412 0.511943H38.02L40.936 8.97194L43.888 0.511943H48.46L44.068 12.1399L47.308 20.2759L54.544 0.439941H59.944L49.72 25.9999H45.436L40.936 15.2719L36.472 25.9999H32.188L22 0.439941H27.328L34.6 20.2759L37.768 12.1399L33.412 0.511943Z" fill="white"/>
</svg>
